<?xml version="1.0" encoding="utf-8"?>
<!-- Generator: Adobe Illustrator 16.0.3, SVG Export Plug-In . SVG Version: 6.00 Build 0)  -->
<!DOCTYPE svg PUBLIC "-//W3C//DTD SVG 1.1//EN" "http://www.w3.org/Graphics/SVG/1.1/DTD/svg11.dtd">
<svg version="1.1" id="Layer_1" xmlns="http://www.w3.org/2000/svg" xmlns:xlink="http://www.w3.org/1999/xlink" x="0px" y="0px"
	 width="612px" height="792px" viewBox="0 0 612 792" enable-background="new 0 0 612 792" xml:space="preserve">
<title>JS5 Logo</title>
<g>
	<polygon fill="#E6C746" points="130.132,645.084 91,206.167 521,206.167 481.826,645.016 305.737,693.834 	"/>
	<polygon fill="#F3DF49" points="306,656.52 448.289,617.072 481.766,242.054 306,242.054 	"/>
	<polygon fill="#EBEBEB" points="306,404.844 234.767,404.844 229.847,349.719 306,349.719 306,295.887 305.814,295.887 
		171.016,295.887 172.305,310.329 185.535,458.674 306,458.674 	"/>
	<polygon fill="#EBEBEB" points="306,544.648 305.764,544.711 245.812,528.523 241.979,485.592 212.847,485.592 187.94,485.592 
		195.482,570.113 305.752,600.725 306,600.656 	"/>
	<polygon fill="#FFFFFF" points="305.814,404.844 305.814,458.674 372.101,458.674 365.854,528.49 305.814,544.695 305.814,600.699 
		416.172,570.113 416.981,561.02 429.631,419.299 430.944,404.844 416.438,404.844 	"/>
	<polygon fill="#FFFFFF" points="305.814,295.887 305.814,329.321 305.814,349.587 305.814,349.719 435.669,349.719 
		435.669,349.719 435.843,349.719 436.923,337.619 439.375,310.329 440.663,295.887 	"/>
</g>
<rect y="65.5" fill="none" width="612" height="138"/>
<text transform="matrix(1 0 0 1 217.3086 174.7871)" font-family="'Helvetica'" font-size="152">JS</text>
</svg>
